# xmcd
#
# Track frame offsets:
#	150
#	12196
#	24019
#	31847
#	41638
#	57091
#	65205
#	74189
#	84553
#	94636
#	102241
#	110172
#	120663
#	129927
#	138724
#	148947
#	159863
#	171708
#	181276
#	190992
#	201776
#
# Disc length: 2813 seconds
# Revision: 6
# Processed by: cddbd v1.5.2PL0 Copyright (c) Steve Scherf et al.
# Submitted via: dBpowerAMP V12.0
#
DISCID=330afb15
DTITLE=Johnny Cash - The Complete Sun Recordings: 1955-1958
DYEAR=2005
DGENRE=Country
TTITLE0=You're The Nearest Thing To Heaven
TTITLE1=The Story Of A Broken Heart [Includes False Start]
TTITLE2=Sugartime
TTITLE3=Born To Lose
TTITLE4=Always Alone [Includes False Starts]
TTITLE5=You Tell Me [Includes False Start]
TTITLE6=Life Goes On
TTITLE7=You Win Again
TTITLE8=I Could Never Be Ashamed Of You
TTITLE9=Hey Good Lookin'
TTITLE10=I Can't Help It (If I'm Still In Love With You)
TTITLE11=Cold Cold Heart
TTITLE12=Blue Train
TTITLE13=Katy Too
TTITLE14=The Ways Of A Woman In Love
TTITLE15=Fools Hall Of Fame
TTITLE16=Thanks A Lot
TTITLE17=It's Just About Time
TTITLE18=I Forgot To Remember To Forget
TTITLE19=I Just Thought You'd Like To Know
TTITLE20=Down The Street To 301
EXTD=
EXTT0=
EXTT1=
EXTT2=
EXTT3=
EXTT4=
EXTT5=
EXTT6=
EXTT7=
EXTT8=
EXTT9=
EXTT10=
EXTT11=
EXTT12=
EXTT13=
EXTT14=
EXTT15=
EXTT16=
EXTT17=
EXTT18=
EXTT19=
EXTT20=
PLAYORDER=
